<svg width="65" height="70" viewBox="0 0 65 70" fill="none" xmlns="http://www.w3.org/2000/svg">
<path d="M40.0135 24.915C39.1068 24.745 38.1718 24.66 37.2085 24.66C35.4518 24.66 33.8085 25.0425 32.2785 25.8075C30.7485 26.5725 29.4168 27.6067 28.2835 28.91C27.1785 30.2133 26.3002 31.715 25.6485 33.415C24.9968 35.0867 24.671 36.8292 24.671 38.6425C24.671 40.4558 25.0535 41.8725 25.8185 42.8925C26.6118 43.8842 27.7593 44.38 29.261 44.38C29.9977 44.38 30.7343 44.2667 31.471 44.04C32.236 43.8133 32.9585 43.4167 33.6385 42.85C34.3185 42.255 34.9418 41.4758 35.5085 40.5125C36.0752 39.5492 36.5427 38.345 36.911 36.9L40.0135 24.915ZM44.986 35.795C44.5327 37.6083 44.306 39.0958 44.306 40.2575C44.3343 41.3908 44.5185 42.2975 44.8585 42.9775C45.1985 43.6292 45.6802 44.0825 46.3035 44.3375C46.9268 44.5925 47.6352 44.72 48.4285 44.72C49.6185 44.72 50.7377 44.3517 51.786 43.615C52.8627 42.85 53.7977 41.7875 54.591 40.4275C55.3843 39.0675 56.0077 37.4525 56.461 35.5825C56.9427 33.7125 57.1835 31.6725 57.1835 29.4625C57.1835 25.7792 56.6027 22.535 55.441 19.73C54.3077 16.925 52.7068 14.5875 50.6385 12.7175C48.5702 10.8192 46.1052 9.4025 43.2435 8.4675C40.4102 7.50417 37.2935 7.0225 33.8935 7.0225C30.1535 7.0225 26.6968 7.73083 23.5235 9.1475C20.3502 10.5358 17.5877 12.4483 15.236 14.885C12.9127 17.3217 11.0852 20.1975 9.75351 23.5125C8.45017 26.8275 7.79851 30.3975 7.79851 34.2225C7.79851 38.8692 8.52101 42.9633 9.96601 46.505C11.411 50.0183 13.3943 52.965 15.916 55.345C18.4377 57.6967 21.3985 59.4675 24.7985 60.6575C28.2268 61.8475 31.9243 62.4425 35.891 62.4425C38.0727 62.4425 40.1127 62.315 42.011 62.06C43.9093 61.8333 45.6518 61.5075 47.2385 61.0825C48.8252 60.6858 50.2702 60.2183 51.5735 59.68C52.8768 59.17 54.0385 58.6175 55.0585 58.0225C55.7952 57.5975 56.4468 57.47 57.0135 57.64C57.5802 57.81 57.991 58.235 58.246 58.915L59.691 62.6975C56.7443 64.6242 53.3018 66.1967 49.3635 67.415C45.4252 68.6333 40.9343 69.2425 35.891 69.2425C30.7627 69.2425 26.0168 68.435 21.6535 66.82C17.2902 65.205 13.5077 62.8817 10.306 59.85C7.13267 56.8467 4.63934 53.1775 2.82601 48.8425C1.04101 44.5075 0.148506 39.6342 0.148506 34.2225C0.148506 31.1908 0.531006 28.2442 1.29601 25.3825C2.08934 22.5208 3.20851 19.8433 4.65351 17.35C6.09851 14.8283 7.84101 12.5192 9.88101 10.4225C11.921 8.32583 14.1877 6.52667 16.681 5.025C19.1743 3.52333 21.866 2.36166 24.756 1.54C27.6743 0.689996 30.7202 0.264996 33.8935 0.264996C37.9168 0.264996 41.7702 0.944996 45.4535 2.305C49.1652 3.63666 52.4377 5.56333 55.271 8.085C58.1327 10.5783 60.4135 13.6383 62.1135 17.265C63.8135 20.8633 64.6635 24.9292 64.6635 29.4625C64.6635 32.4942 64.2102 35.3417 63.3035 38.005C62.4252 40.64 61.1785 42.935 59.5635 44.89C57.9768 46.845 56.0927 48.3892 53.911 49.5225C51.7577 50.6275 49.406 51.18 46.856 51.18C44.901 51.18 43.1727 50.7267 41.671 49.82C40.1693 48.9133 39.1352 47.4542 38.5685 45.4425C36.8968 47.4825 35.126 48.9417 33.256 49.82C31.386 50.6983 29.3602 51.1375 27.1785 51.1375C25.3935 51.1375 23.8352 50.8258 22.5035 50.2025C21.2002 49.5792 20.0952 48.7292 19.1885 47.6525C18.3102 46.5475 17.6443 45.2583 17.191 43.785C16.766 42.2833 16.5535 40.6542 16.5535 38.8975C16.5535 37.2825 16.7518 35.6533 17.1485 34.01C17.5735 32.3383 18.1968 30.7375 19.0185 29.2075C19.8402 27.6492 20.8602 26.2042 22.0785 24.8725C23.3252 23.5125 24.7702 22.3367 26.4135 21.345C28.0852 20.325 29.9552 19.5317 32.0235 18.965C34.1202 18.37 36.4152 18.0725 38.9085 18.0725C41.1185 18.0725 43.0027 18.2425 44.561 18.5825C46.1193 18.9225 47.621 19.4042 49.066 20.0275L44.986 35.795Z" fill="white"/>
</svg>
