<svg width="105" height="97" viewBox="0 0 105 97" fill="none" xmlns="http://www.w3.org/2000/svg">
<path d="M52.5 0C23.5113 0 0 22.2649 0 49.7261C0 71.6967 15.0412 90.3357 35.9056 96.912C38.5262 97.372 39.375 95.8305 39.375 94.521V85.2637C24.7712 88.2721 21.7306 79.396 21.7306 79.396C19.3419 73.6485 15.8987 72.1194 15.8987 72.1194C11.1344 69.0322 16.2619 69.0985 16.2619 69.0985C21.5337 69.4466 24.3075 74.2245 24.3075 74.2245C28.9888 81.8243 36.5881 79.6281 39.585 78.3559C40.0531 75.1444 41.4137 72.9482 42.9188 71.7092C31.2594 70.4453 19.0006 66.1813 19.0006 47.132C19.0006 41.6995 21.0525 37.2656 24.4081 33.7847C23.8656 32.5292 22.0675 27.4695 24.92 20.6239C24.92 20.6239 29.33 19.2896 39.3619 25.7208C43.5487 24.6186 48.0375 24.0674 52.5 24.0467C56.9625 24.0674 61.4556 24.6186 65.6512 25.7208C75.6744 19.2896 80.0756 20.6239 80.0756 20.6239C82.9325 27.4737 81.1344 32.5333 80.5919 33.7847C83.9606 37.2656 85.995 41.7036 85.995 47.132C85.995 66.231 73.7144 70.437 62.0244 71.6677C63.9056 73.2092 65.625 76.2342 65.625 80.8754V94.521C65.625 95.8429 66.465 97.3968 69.1294 96.9079C89.9762 90.3233 105 71.6884 105 49.7261C105 22.2649 81.4931 0 52.5 0Z" fill="white"/>
</svg>
