<svg width="65" height="63" viewBox="0 0 65 63" fill="none" xmlns="http://www.w3.org/2000/svg">
<path d="M29.8733 58.6889C28.0934 64.911 32.2331 63.0553 34.5255 61.3497C39.7844 58.8936 51.9205 51.1159 59.8089 41.2915C67.6974 31.4671 65.2702 20.8241 61.2248 14.2745C57.1795 7.72491 45.4479 -1.28078 29.2665 0.151944C13.0851 1.58467 5.8035 11.8184 4.99443 12.6371C4.18536 13.4558 -3.90535 24.3036 2.36495 36.7887C8.63524 49.2739 22.1872 52.958 25.0189 52.958C27.8507 52.958 31.4915 53.1627 29.8733 58.6889Z" fill="white"/>
<path d="M20.1797 31.669V34H11.2862V18.817H14.1107V31.669H20.1797ZM25.0314 34H22.1964V18.817H25.0314V34ZM41.2302 18.817V34H39.7812C39.5572 34 39.3682 33.965 39.2142 33.895C39.0672 33.818 38.9237 33.692 38.7837 33.517L30.8562 23.395C30.8982 23.857 30.9192 24.284 30.9192 24.676V34H28.4307V18.817H29.9112C30.0302 18.817 30.1317 18.824 30.2157 18.838C30.3067 18.845 30.3837 18.866 30.4467 18.901C30.5167 18.929 30.5832 18.9745 30.6462 19.0375C30.7092 19.0935 30.7792 19.1705 30.8562 19.2685L38.8152 29.4325C38.7942 29.1875 38.7767 28.946 38.7627 28.708C38.7487 28.47 38.7417 28.2495 38.7417 28.0465V18.817H41.2302ZM47.4464 21.064V25.2745H52.7594V27.448H47.4464V31.7425H54.1874V34H44.6114V18.817H54.1874V21.064H47.4464Z" fill="#391F3E"/>
</svg>
