<svg width="225" height="82" viewBox="0 0 225 82" fill="none" xmlns="http://www.w3.org/2000/svg">
<path d="M43.9188 52.45V58H22.7438V21.85H29.4688V52.45H43.9188ZM54.1453 32.35V58H47.9453V32.35H54.1453ZM54.9953 24.875C54.9953 25.4083 54.887 25.9083 54.6703 26.375C54.4536 26.8417 54.162 27.25 53.7953 27.6C53.4453 27.95 53.0286 28.2333 52.5453 28.45C52.062 28.65 51.5453 28.75 50.9953 28.75C50.462 28.75 49.9536 28.65 49.4703 28.45C49.0036 28.2333 48.5953 27.95 48.2453 27.6C47.8953 27.25 47.612 26.8417 47.3953 26.375C47.1953 25.9083 47.0953 25.4083 47.0953 24.875C47.0953 24.325 47.1953 23.8083 47.3953 23.325C47.612 22.8417 47.8953 22.425 48.2453 22.075C48.5953 21.725 49.0036 21.45 49.4703 21.25C49.9536 21.0333 50.462 20.925 50.9953 20.925C51.5453 20.925 52.062 21.0333 52.5453 21.25C53.0286 21.45 53.4453 21.725 53.7953 22.075C54.162 22.425 54.4536 22.8417 54.6703 23.325C54.887 23.8083 54.9953 24.325 54.9953 24.875ZM66.2156 35.5C66.7323 34.9833 67.274 34.5083 67.8406 34.075C68.424 33.625 69.0323 33.25 69.6656 32.95C70.3156 32.6333 71.0073 32.3917 71.7406 32.225C72.474 32.0417 73.274 31.95 74.1406 31.95C75.5406 31.95 76.7823 32.1917 77.8656 32.675C78.949 33.1417 79.849 33.8083 80.5656 34.675C81.299 35.525 81.849 36.55 82.2156 37.75C82.599 38.9333 82.7906 40.2417 82.7906 41.675V58H76.6156V41.675C76.6156 40.1083 76.2573 38.9 75.5406 38.05C74.824 37.1833 73.7323 36.75 72.2656 36.75C71.199 36.75 70.199 36.9917 69.2656 37.475C68.3323 37.9583 67.449 38.6167 66.6156 39.45V58H60.4406V32.35H64.2156C65.0156 32.35 65.5406 32.725 65.7906 33.475L66.2156 35.5ZM94.8383 20.85V42.125H95.9883C96.4049 42.125 96.7299 42.075 96.9633 41.975C97.2133 41.8583 97.4633 41.6333 97.7133 41.3L104.088 33.425C104.355 33.075 104.647 32.8083 104.963 32.625C105.297 32.4417 105.722 32.35 106.238 32.35H111.888L103.913 41.875C103.347 42.625 102.73 43.2 102.063 43.6C102.413 43.85 102.722 44.1417 102.988 44.475C103.272 44.8083 103.538 45.1667 103.788 45.55L112.338 58H106.763C106.28 58 105.863 57.925 105.513 57.775C105.163 57.6083 104.872 57.3167 104.638 56.9L98.0883 47.175C97.8549 46.7917 97.6133 46.5417 97.3633 46.425C97.1133 46.3083 96.7383 46.25 96.2383 46.25H94.8383V58H88.6633V20.85H94.8383ZM130.579 42.225C130.579 41.425 130.462 40.675 130.229 39.975C130.012 39.2583 129.679 38.6333 129.229 38.1C128.779 37.5667 128.204 37.15 127.504 36.85C126.821 36.5333 126.021 36.375 125.104 36.375C123.321 36.375 121.912 36.8833 120.879 37.9C119.862 38.9167 119.212 40.3583 118.929 42.225H130.579ZM118.804 45.95C118.904 47.2667 119.137 48.4083 119.504 49.375C119.871 50.325 120.354 51.1167 120.954 51.75C121.554 52.3667 122.262 52.8333 123.079 53.15C123.912 53.45 124.829 53.6 125.829 53.6C126.829 53.6 127.687 53.4833 128.404 53.25C129.137 53.0167 129.771 52.7583 130.304 52.475C130.854 52.1917 131.329 51.9333 131.729 51.7C132.146 51.4667 132.546 51.35 132.929 51.35C133.446 51.35 133.829 51.5417 134.079 51.925L135.854 54.175C135.171 54.975 134.404 55.65 133.554 56.2C132.704 56.7333 131.812 57.1667 130.879 57.5C129.962 57.8167 129.021 58.0417 128.054 58.175C127.104 58.3083 126.179 58.375 125.279 58.375C123.496 58.375 121.837 58.0833 120.304 57.5C118.771 56.9 117.437 56.025 116.304 54.875C115.171 53.7083 114.279 52.275 113.629 50.575C112.979 48.8583 112.654 46.875 112.654 44.625C112.654 42.875 112.937 41.2333 113.504 39.7C114.071 38.15 114.879 36.8083 115.929 35.675C116.996 34.525 118.287 33.6167 119.804 32.95C121.337 32.2833 123.062 31.95 124.979 31.95C126.596 31.95 128.087 32.2083 129.454 32.725C130.821 33.2417 131.996 34 132.979 35C133.962 35.9833 134.729 37.2 135.279 38.65C135.846 40.0833 136.129 41.725 136.129 43.575C136.129 44.5083 136.029 45.1417 135.829 45.475C135.629 45.7917 135.246 45.95 134.679 45.95H118.804ZM156.863 38.9C156.163 38.05 155.396 37.45 154.563 37.1C153.746 36.75 152.863 36.575 151.913 36.575C150.98 36.575 150.138 36.75 149.388 37.1C148.638 37.45 147.996 37.9833 147.463 38.7C146.93 39.4 146.521 40.3 146.238 41.4C145.955 42.4833 145.813 43.7667 145.813 45.25C145.813 46.75 145.93 48.025 146.163 49.075C146.413 50.1083 146.763 50.9583 147.213 51.625C147.663 52.275 148.213 52.75 148.863 53.05C149.513 53.3333 150.238 53.475 151.038 53.475C152.321 53.475 153.413 53.2083 154.313 52.675C155.213 52.1417 156.063 51.3833 156.863 50.4V38.9ZM163.038 20.85V58H159.263C158.446 58 157.93 57.625 157.713 56.875L157.188 54.4C156.155 55.5833 154.963 56.5417 153.613 57.275C152.28 58.0083 150.721 58.375 148.938 58.375C147.538 58.375 146.255 58.0833 145.088 57.5C143.921 56.9167 142.913 56.075 142.063 54.975C141.23 53.8583 140.58 52.4833 140.113 50.85C139.663 49.2167 139.438 47.35 139.438 45.25C139.438 43.35 139.696 41.5833 140.213 39.95C140.73 38.3167 141.471 36.9 142.438 35.7C143.405 34.5 144.563 33.5667 145.913 32.9C147.263 32.2167 148.78 31.875 150.463 31.875C151.896 31.875 153.121 32.1 154.138 32.55C155.155 33 156.063 33.6083 156.863 34.375V20.85H163.038ZM175.532 32.35V58H169.332V32.35H175.532ZM176.382 24.875C176.382 25.4083 176.274 25.9083 176.057 26.375C175.84 26.8417 175.549 27.25 175.182 27.6C174.832 27.95 174.415 28.2333 173.932 28.45C173.449 28.65 172.932 28.75 172.382 28.75C171.849 28.75 171.34 28.65 170.857 28.45C170.39 28.2333 169.982 27.95 169.632 27.6C169.282 27.25 168.999 26.8417 168.782 26.375C168.582 25.9083 168.482 25.4083 168.482 24.875C168.482 24.325 168.582 23.8083 168.782 23.325C168.999 22.8417 169.282 22.425 169.632 22.075C169.982 21.725 170.39 21.45 170.857 21.25C171.34 21.0333 171.849 20.925 172.382 20.925C172.932 20.925 173.449 21.0333 173.932 21.25C174.415 21.45 174.832 21.725 175.182 22.075C175.549 22.425 175.84 22.8417 176.057 23.325C176.274 23.8083 176.382 24.325 176.382 24.875ZM187.602 35.5C188.119 34.9833 188.661 34.5083 189.227 34.075C189.811 33.625 190.419 33.25 191.052 32.95C191.702 32.6333 192.394 32.3917 193.127 32.225C193.861 32.0417 194.661 31.95 195.527 31.95C196.927 31.95 198.169 32.1917 199.252 32.675C200.336 33.1417 201.236 33.8083 201.952 34.675C202.686 35.525 203.236 36.55 203.602 37.75C203.986 38.9333 204.177 40.2417 204.177 41.675V58H198.002V41.675C198.002 40.1083 197.644 38.9 196.927 38.05C196.211 37.1833 195.119 36.75 193.652 36.75C192.586 36.75 191.586 36.9917 190.652 37.475C189.719 37.9583 188.836 38.6167 188.002 39.45V58H181.827V32.35H185.602C186.402 32.35 186.927 32.725 187.177 33.475L187.602 35.5Z" fill="white"/>
<rect x="1.5" y="1.5" width="222" height="79" rx="17.5" stroke="white" stroke-width="3"/>
</svg>
