<svg width="476" height="526" viewBox="0 0 476 526" fill="none" xmlns="http://www.w3.org/2000/svg">
<g filter="url(#filter0_d)">
<path d="M309.756 282.142L296.235 295.886C296.235 295.886 277.301 312.597 288.655 326.585C294.127 333.325 330.287 318.249 357.474 345.922C384.66 373.594 455.079 366.114 455.079 366.114C455.079 366.114 395.079 354.47 375.51 316.812C355.94 279.155 326.649 281.42 317.753 280.776C313.961 280.502 309.756 282.142 309.756 282.142Z" fill="#E75656"/>
<path d="M293.564 293.248L290.414 299.789C290.414 299.789 285.725 308.046 291.167 311.649C293.789 313.385 317.695 318.33 337.622 320.546C357.549 322.762 372.841 342.368 372.841 342.368C372.841 342.368 361.928 308.582 342.568 299.524C323.208 290.467 299.302 290.936 296.168 291.789C294.833 292.152 293.564 293.248 293.564 293.248Z" fill="#EBF4FF"/>
<path d="M249.493 330.443L304.08 242.342L321.357 277.284L287.815 331.418L249.493 330.443Z" fill="#5E1538"/>
<path d="M47.4371 142.084L223.639 251.258L197.989 292.655C75.5787 198.42 47.4371 142.084 47.4371 142.084Z" fill="#813358"/>
<path d="M47.4371 142.084L223.639 251.258L197.989 292.655C75.5787 198.42 47.4371 142.084 47.4371 142.084Z" fill="#813358"/>
<path d="M47.4371 142.084L223.639 251.258L247.973 211.984C109.518 143.644 47.4371 142.084 47.4371 142.084Z" fill="#813358"/>
<path d="M47.4371 142.084L223.639 251.258L247.973 211.984C109.518 143.644 47.4371 142.084 47.4371 142.084Z" fill="#813358"/>
<path d="M196.928 291.997L246.911 211.327L307.414 248.814L257.431 329.485L196.928 291.997Z" fill="#813358"/>
<circle cx="212.367" cy="245.743" r="34.9633" transform="rotate(-58.2177 212.367 245.743)" fill="#DBD4ED"/>
<path d="M242.008 209.758L388.489 300.517C388.489 300.517 265.431 145.105 242.008 209.758Z" fill="#691E42"/>
<path d="M192.931 288.052L339.821 379.065C339.821 379.065 145.362 337.902 192.931 288.052Z" fill="#691E42"/>
<path d="M194.999 235.656C194.635 235.036 194.843 234.238 195.463 233.875C196.083 233.511 196.88 233.719 197.244 234.339L212.213 259.853C212.577 260.473 212.369 261.271 211.749 261.634C211.129 261.998 210.332 261.79 209.968 261.171L194.999 235.656Z" fill="white"/>
<path d="M209.425 230.874C209.139 230.386 209.302 229.758 209.79 229.472C210.278 229.186 210.906 229.349 211.192 229.837L224.054 251.759C224.34 252.247 224.177 252.875 223.689 253.161C223.201 253.448 222.573 253.284 222.287 252.796L209.425 230.874Z" fill="white"/>
</g>
<path d="M234.339 162L232.189 162L233.995 147.638L215.677 147.638L213.914 162L211.764 162L215.505 131.47L217.655 131.47L215.892 145.617L234.21 145.617L235.93 131.47L238.08 131.47L234.339 162ZM251.148 160.581C252.84 160.581 254.374 160.051 255.75 158.99L256.609 160.538C255.778 161.111 254.875 161.556 253.901 161.871C252.926 162.158 251.951 162.301 250.976 162.301C249.314 162.301 247.837 161.957 246.547 161.269C245.257 160.552 244.254 159.563 243.537 158.302C242.821 157.041 242.462 155.607 242.462 154.002C242.462 152.397 242.864 150.892 243.666 149.487C244.469 148.054 245.587 146.907 247.02 146.047C248.454 145.158 250.074 144.714 251.88 144.714C253.944 144.714 255.664 145.287 257.04 146.434C258.416 147.581 259.333 149.272 259.792 151.508L244.87 156.152C245.3 157.471 246.074 158.546 247.193 159.377C248.339 160.18 249.658 160.581 251.148 160.581ZM251.837 146.391C250.461 146.391 249.214 146.735 248.096 147.423C246.977 148.082 246.089 148.985 245.429 150.132C244.799 151.25 244.483 152.468 244.483 153.787C244.483 154.16 244.498 154.432 244.526 154.604L257.427 150.605C256.997 149.372 256.294 148.369 255.32 147.595C254.345 146.792 253.184 146.391 251.837 146.391ZM270.167 129.32L266.125 162L264.104 162L268.103 129.32L270.167 129.32ZM279.867 129.32L275.825 162L273.804 162L277.803 129.32L279.867 129.32ZM291.373 162.344C289.854 162.344 288.435 162.014 287.116 161.355C285.826 160.667 284.794 159.707 284.02 158.474C283.246 157.213 282.859 155.765 282.859 154.131C282.859 152.612 283.203 151.135 283.891 149.702C284.579 148.24 285.625 147.05 287.03 146.133C288.463 145.187 290.226 144.714 292.319 144.714C293.867 144.714 295.286 145.058 296.576 145.746C297.895 146.434 298.927 147.409 299.672 148.67C300.446 149.903 300.833 151.307 300.833 152.884C300.833 154.375 300.489 155.851 299.801 157.313C299.142 158.746 298.095 159.95 296.662 160.925C295.257 161.871 293.494 162.344 291.373 162.344ZM291.459 160.624C293.064 160.624 294.412 160.251 295.501 159.506C296.619 158.761 297.436 157.815 297.952 156.668C298.497 155.493 298.769 154.274 298.769 153.013C298.769 151.723 298.468 150.576 297.866 149.573C297.264 148.57 296.461 147.796 295.458 147.251C294.483 146.706 293.408 146.434 292.233 146.434C290.656 146.434 289.309 146.807 288.191 147.552C287.102 148.297 286.285 149.258 285.74 150.433C285.195 151.58 284.923 152.784 284.923 154.045C284.923 155.306 285.21 156.439 285.783 157.442C286.385 158.445 287.188 159.234 288.191 159.807C289.194 160.352 290.284 160.624 291.459 160.624ZM325.358 137.791L324.412 145.402L329.658 145.402L329.443 147.079L324.197 147.079L322.391 162L320.37 162L322.176 147.079L318.564 147.079L318.779 145.402L322.391 145.402L323.294 137.791L325.358 137.791ZM343.814 144.714C345.391 144.714 346.609 145.187 347.469 146.133C348.329 147.05 348.687 148.254 348.544 149.745L347.039 162L345.018 162L346.437 150.132C346.523 149.1 346.279 148.254 345.706 147.595C345.133 146.907 344.287 146.549 343.169 146.52C341.965 146.52 340.833 146.807 339.772 147.38C338.711 147.925 337.823 148.699 337.106 149.702C336.389 150.677 335.959 151.78 335.816 153.013L334.698 162L332.677 162L336.676 129.32L338.697 129.32L336.332 148.541C337.106 147.394 338.152 146.477 339.471 145.789C340.818 145.072 342.266 144.714 343.814 144.714ZM362.722 160.581C364.413 160.581 365.947 160.051 367.323 158.99L368.183 160.538C367.351 161.111 366.448 161.556 365.474 161.871C364.499 162.158 363.524 162.301 362.55 162.301C360.887 162.301 359.411 161.957 358.121 161.269C356.831 160.552 355.827 159.563 355.111 158.302C354.394 157.041 354.036 155.607 354.036 154.002C354.036 152.397 354.437 150.892 355.24 149.487C356.042 148.054 357.16 146.907 358.594 146.047C360.027 145.158 361.647 144.714 363.453 144.714C365.517 144.714 367.237 145.287 368.613 146.434C369.989 147.581 370.906 149.272 371.365 151.508L356.444 156.152C356.874 157.471 357.648 158.546 358.766 159.377C359.912 160.18 361.231 160.581 362.722 160.581ZM363.41 146.391C362.034 146.391 360.787 146.735 359.669 147.423C358.551 148.082 357.662 148.985 357.003 150.132C356.372 151.25 356.057 152.468 356.057 153.787C356.057 154.16 356.071 154.432 356.1 154.604L369 150.605C368.57 149.372 367.867 148.369 366.893 147.595C365.918 146.792 364.757 146.391 363.41 146.391ZM379.031 149.659C379.748 148.14 380.837 146.95 382.299 146.09C383.761 145.201 385.266 144.743 386.814 144.714L386.513 146.692C385.252 146.692 384.048 146.979 382.901 147.552C381.783 148.097 380.851 148.871 380.106 149.874C379.361 150.849 378.931 151.924 378.816 153.099L377.698 162L375.677 162L377.741 145.187L379.504 145.187L379.031 149.659ZM397.785 160.581C399.477 160.581 401.01 160.051 402.386 158.99L403.246 160.538C402.415 161.111 401.512 161.556 400.537 161.871C399.563 162.158 398.588 162.301 397.613 162.301C395.951 162.301 394.474 161.957 393.184 161.269C391.894 160.552 390.891 159.563 390.174 158.302C389.458 157.041 389.099 155.607 389.099 154.002C389.099 152.397 389.501 150.892 390.303 149.487C391.106 148.054 392.224 146.907 393.657 146.047C395.091 145.158 396.71 144.714 398.516 144.714C400.58 144.714 402.3 145.287 403.676 146.434C405.052 147.581 405.97 149.272 406.428 151.508L391.507 156.152C391.937 157.471 392.711 158.546 393.829 159.377C394.976 160.18 396.295 160.581 397.785 160.581ZM398.473 146.391C397.097 146.391 395.85 146.735 394.732 147.423C393.614 148.082 392.726 148.985 392.066 150.132C391.436 151.25 391.12 152.468 391.12 153.787C391.12 154.16 391.135 154.432 391.163 154.604L404.063 150.605C403.633 149.372 402.931 148.369 401.956 147.595C400.982 146.792 399.821 146.391 398.473 146.391ZM410.353 160.71C410.353 160.28 410.525 159.907 410.869 159.592C411.213 159.248 411.6 159.076 412.03 159.076C412.346 159.076 412.632 159.205 412.89 159.463C413.148 159.721 413.277 160.036 413.277 160.409C413.277 160.839 413.105 161.212 412.761 161.527C412.417 161.842 412.045 162 411.643 162C411.299 162 410.998 161.885 410.74 161.656C410.482 161.398 410.353 161.083 410.353 160.71Z" fill="white"/>
<defs>
<filter id="filter0_d" x="13.7877" y="102.81" width="446.926" height="317.405" filterUnits="userSpaceOnUse" color-interpolation-filters="sRGB">
<feFlood flood-opacity="0" result="BackgroundImageFix"/>
<feColorMatrix in="SourceAlpha" type="matrix" values="0 0 0 0 0 0 0 0 0 0 0 0 0 0 0 0 0 0 127 0"/>
<feOffset dx="-4" dy="4"/>
<feGaussianBlur stdDeviation="2"/>
<feColorMatrix type="matrix" values="0 0 0 0 0 0 0 0 0 0 0 0 0 0 0 0 0 0 0.25 0"/>
<feBlend mode="normal" in2="BackgroundImageFix" result="effect1_dropShadow"/>
<feBlend mode="normal" in="SourceGraphic" in2="effect1_dropShadow" result="shape"/>
</filter>
</defs>
</svg>
