<svg width="360" height="279" viewBox="0 0 360 279" fill="none" xmlns="http://www.w3.org/2000/svg">
<g filter="url(#filter0_d)">
<path d="M145.163 182.539L139.441 167.773C139.441 167.773 133.327 147.954 119.02 151.729C112.126 153.548 111.197 185.712 81.297 196.716C51.3968 207.721 33.2097 262.966 33.2097 262.966C33.2097 262.966 62.1941 221.982 96.9965 220.052C131.799 218.122 139.998 195.429 143.484 188.986C144.971 186.24 145.163 182.539 145.163 182.539Z" fill="#EF6060"/>
<path d="M142.319 166.665L138.486 162.097C138.486 162.097 133.888 155.798 129.353 158.655C127.168 160.031 115.39 176.257 107 190.427C98.6098 204.596 78.7665 209.422 78.7665 209.422C78.7665 209.422 107.746 212.665 121.067 201.231C134.387 189.797 142.111 171.741 142.531 169.107C142.71 167.985 142.319 166.665 142.319 166.665Z" fill="#EBF4FF"/>
<path d="M129.361 121.108L176.876 191.734L144.881 192.864L115.685 149.467L129.361 121.108Z" fill="#953B3B"/>
<path d="M338.626 33.4698L197.374 128.501L175.048 95.3151C286.945 35.507 338.626 33.4698 338.626 33.4698Z" fill="#E75656"/>
<path d="M338.626 33.4698L197.374 128.501L175.048 95.3151C286.945 35.507 338.626 33.4698 338.626 33.4698Z" fill="#E75656"/>
<path d="M338.626 33.4698L197.374 128.501L218.556 159.985C316.487 79.4185 338.626 33.4698 338.626 33.4698Z" fill="#E75656"/>
<path d="M338.626 33.4698L197.374 128.501L218.556 159.985C316.487 79.4185 338.626 33.4698 338.626 33.4698Z" fill="#E75656"/>
<path d="M175.899 94.7426L219.407 159.412L170.905 192.043L127.396 127.374L175.899 94.7426Z" fill="#E75656"/>
<circle cx="205.311" cy="121.925" r="28.7159" transform="rotate(56.0683 205.311 121.925)" fill="#DBD4ED"/>
<path d="M222.237 156.272L104.811 235.273C104.811 235.273 262.726 195.646 222.237 156.272Z" fill="#B14646"/>
<path d="M180.202 93.0831L62.448 172.305C62.448 172.305 158.952 40.6322 180.202 93.0831Z" fill="#B14646"/>
<path d="M218.729 112.331C219.316 112.268 219.843 112.693 219.906 113.28C219.969 113.867 219.544 114.393 218.957 114.456L194.799 117.044C194.212 117.107 193.686 116.682 193.623 116.095C193.56 115.508 193.985 114.981 194.572 114.918L218.729 112.331Z" fill="white"/>
<path d="M217.436 124.746C217.898 124.696 218.313 125.031 218.362 125.493C218.412 125.955 218.077 126.37 217.615 126.419L196.859 128.642C196.397 128.692 195.982 128.357 195.933 127.895C195.883 127.433 196.218 127.019 196.68 126.969L217.436 124.746Z" fill="white"/>
</g>
<defs>
<filter id="filter0_d" x="0.345825" y="0.284088" width="359.462" height="277.972" filterUnits="userSpaceOnUse" color-interpolation-filters="sRGB">
<feFlood flood-opacity="0" result="BackgroundImageFix"/>
<feColorMatrix in="SourceAlpha" type="matrix" values="0 0 0 0 0 0 0 0 0 0 0 0 0 0 0 0 0 0 127 0"/>
<feOffset dx="-4" dy="4"/>
<feGaussianBlur stdDeviation="2"/>
<feColorMatrix type="matrix" values="0 0 0 0 0 0 0 0 0 0 0 0 0 0 0 0 0 0 0.25 0"/>
<feBlend mode="normal" in2="BackgroundImageFix" result="effect1_dropShadow"/>
<feBlend mode="normal" in="SourceGraphic" in2="effect1_dropShadow" result="shape"/>
</filter>
</defs>
</svg>
