<svg width="251" height="120" viewBox="0 0 251 120" fill="none" xmlns="http://www.w3.org/2000/svg">
<g filter="url(#filter0_d)">
<path d="M179.46 71.2106C179.924 70.3444 181.008 70.0159 181.881 70.4768L216.008 88.494C216.881 88.9549 217.212 90.0307 216.748 90.8969C216.284 91.7631 215.2 92.0917 214.327 91.6308L180.2 73.6135C179.327 73.1527 178.996 72.0768 179.46 71.2106Z" fill="#E6E6E6"/>
<path d="M215.615 89.1984C216.386 89.8133 216.509 90.9316 215.889 91.6962L200.6 110.569C199.981 111.333 198.854 111.455 198.083 110.84C197.312 110.225 197.19 109.107 197.809 108.342L213.098 89.4697C213.718 88.705 214.845 88.5836 215.615 89.1984Z" fill="#E6E6E6"/>
<path d="M79.548 71.879C79.1481 71.0841 78.1794 70.7638 77.3845 71.1638L46.3077 86.7985C45.5127 87.1985 45.1925 88.1671 45.5924 88.9621C45.9924 89.7571 46.961 90.0773 47.756 89.6774L78.8328 74.0426C79.6278 73.6427 79.948 72.674 79.548 71.879Z" fill="#E6E6E6"/>
<path d="M46.6466 87.4453C45.9405 87.9869 45.8072 88.9984 46.3489 89.7045L59.7171 107.132C60.2587 107.838 61.2702 107.971 61.9763 107.429C62.6824 106.888 62.8157 105.876 62.2741 105.17L48.9058 87.7431C48.3642 87.037 47.3527 86.9037 46.6466 87.4453Z" fill="#E6E6E6"/>
<path d="M196.896 55.2958C197.054 41.4614 190.113 28.1127 177.602 18.1865C165.091 8.26027 148.034 2.56954 130.183 2.36622C112.332 2.1629 95.1496 7.46364 82.4156 17.1023C69.6817 26.741 62.4393 39.9281 62.2817 53.7626L129.589 54.5292L196.896 55.2958Z" fill="#DAD4ED"/>
<path d="M48.7283 47.4348C48.6777 51.8837 52.2432 55.5314 56.6922 55.5821L204.536 57.266C208.985 57.3167 212.633 53.7512 212.683 49.3022C212.734 44.8532 209.168 41.2055 204.719 41.1548L56.8757 39.4709C52.4267 39.4203 48.779 42.9858 48.7283 47.4348Z" fill="#894171"/>
<circle cx="34.2311" cy="50.1434" r="10.4256" transform="rotate(0.652559 34.2311 50.1434)" fill="#FCFF77"/>
<circle cx="227.231" cy="52.1434" r="10.4256" transform="rotate(0.652559 227.231 52.1434)" fill="#FCFF77"/>
<path d="M8.84888 60.268C8.93234 52.9403 14.9403 47.0677 22.268 47.1511L236.782 49.5944C244.109 49.6778 249.982 55.6858 249.899 63.0135C249.815 70.3413 243.807 76.2139 236.479 76.1305L21.9658 73.6872C14.6381 73.6037 8.76542 67.5958 8.84888 60.268Z" fill="#5A2B4A"/>
<path d="M83.0592 27.4809C88.5624 20.8017 97.1338 17.3369 102.419 16.0269C103.471 15.7662 104.027 14.5558 103.469 13.6264C103.158 13.1078 102.571 12.8167 101.975 12.9186C96.7488 13.8118 86.6472 17.3452 80.5341 25.7737C80.1977 26.2374 80.1843 26.8574 80.4789 27.3487C81.0344 28.2751 82.3724 28.3146 83.0592 27.4809Z" fill="white"/>
<path d="M91.7783 28.354C94.5735 24.9615 98.927 23.2017 101.611 22.5363C102.146 22.4039 102.428 21.7891 102.145 21.3171C101.987 21.0537 101.689 20.9058 101.386 20.9575C98.7315 21.4112 93.6007 23.2059 90.4958 27.4869C90.3249 27.7224 90.3181 28.0373 90.4677 28.2868C90.7499 28.7573 91.4295 28.7774 91.7783 28.354Z" fill="white"/>
<ellipse rx="4.49221" ry="3.56982" transform="matrix(0.999997 0.00230358 0.00288749 0.999996 64.5932 60.7828)" fill="#FCFF77"/>
<ellipse rx="4.49221" ry="3.56982" transform="matrix(0.999997 0.00233898 0.00294333 0.999996 106.132 62.081)" fill="#FCFF77"/>
<ellipse rx="4.49221" ry="3.56982" transform="matrix(0.999997 0.00233898 0.00294333 0.999996 147.67 62.081)" fill="#FCFF77"/>
<ellipse rx="4.49221" ry="3.56982" transform="matrix(0.999997 0.00233898 0.00294333 0.999996 189.208 62.081)" fill="#FCFF77"/>
</g>
<defs>
<filter id="filter0_d" x="0.697754" y="1.59961" width="249.352" height="117.832" filterUnits="userSpaceOnUse" color-interpolation-filters="sRGB">
<feFlood flood-opacity="0" result="BackgroundImageFix"/>
<feColorMatrix in="SourceAlpha" type="matrix" values="0 0 0 0 0 0 0 0 0 0 0 0 0 0 0 0 0 0 127 0"/>
<feOffset dx="-4" dy="4"/>
<feGaussianBlur stdDeviation="2"/>
<feColorMatrix type="matrix" values="0 0 0 0 0 0 0 0 0 0 0 0 0 0 0 0 0 0 0.25 0"/>
<feBlend mode="normal" in2="BackgroundImageFix" result="effect1_dropShadow"/>
<feBlend mode="normal" in="SourceGraphic" in2="effect1_dropShadow" result="shape"/>
</filter>
</defs>
</svg>
